<?xml version="1.0" encoding="utf-8"?>
<!-- Generator: Adobe Illustrator 26.3.1, SVG Export Plug-In . SVG Version: 6.00 Build 0)  -->
<svg version="1.1" id="Layer_1" xmlns="http://www.w3.org/2000/svg" xmlns:xlink="http://www.w3.org/1999/xlink" x="0px" y="0px"
	 viewBox="0 0 500 500" style="enable-background:new 0 0 500 500;" xml:space="preserve">
<style type="text/css">
	.st0{fill:rgba(0,0,0,0);}
	.st1{fill:#FFFFFF;}
</style>
<g>
	<path class="st0" d="M250,495c-65.4,0-127-25.5-173.2-71.8S5,315.4,5,250S30.5,123,76.8,76.8S184.6,5,250,5s127,25.5,173.2,71.8
		S495,184.6,495,250s-25.5,127-71.8,173.2S315.4,495,250,495z"/>
	<path class="st1" d="M250,25c30.4,0,59.8,5.9,87.6,17.7c26.8,11.3,50.9,27.6,71.5,48.2c20.7,20.7,36.9,44.7,48.2,71.5
		c11.7,27.7,17.7,57.2,17.7,87.6s-5.9,59.8-17.7,87.6c-11.3,26.8-27.6,50.9-48.2,71.5c-20.7,20.7-44.7,36.9-71.5,48.2
		C309.8,469.1,280.4,475,250,475s-59.8-5.9-87.6-17.7c-26.8-11.3-50.9-27.6-71.5-48.2c-20.7-20.7-36.9-44.7-48.2-71.5
		C30.9,309.8,25,280.4,25,250s5.9-59.8,17.7-87.6c11.3-26.8,27.6-50.9,48.2-71.5c20.7-20.7,44.7-36.9,71.5-48.2
		C190.2,30.9,219.6,25,250,25 M250,0C111.9,0,0,111.9,0,250s111.9,250,250,250s250-111.9,250-250S388.1,0,250,0L250,0z"/>
</g>
<g>
	<path class="st1" d="M338.5,142.9h-177c-34.7,0-62.9,28.2-62.9,62.9v88.5c0,34.7,28.2,62.9,62.9,62.9h177
		c34.7,0,62.9-28.2,62.9-62.9v-88.5C401.4,171,373.2,142.9,338.5,142.9z M296,254.3l-82.8,39.5c-2.2,1.1-4.7-0.6-4.7-3v-81.4
		c0-2.5,2.6-4.1,4.8-3l82.8,42C298.5,249.6,298.5,253.1,296,254.3z"/>
</g>
</svg>
