<?xml version="1.0" encoding="utf-8"?>
<!-- Generator: Adobe Illustrator 26.3.1, SVG Export Plug-In . SVG Version: 6.00 Build 0)  -->
<svg version="1.1" id="Layer_1" xmlns="http://www.w3.org/2000/svg" xmlns:xlink="http://www.w3.org/1999/xlink" x="0px" y="0px"
	 viewBox="0 0 550 500" style="enable-background:new 0 0 550 500;" xml:space="preserve">
<style type="text/css">
	.st0{fill:#222324;}
	.st1{fill:none;stroke:#222324;stroke-width:3;stroke-miterlimit:10;}
	.st2{fill:none;stroke:#222324;stroke-width:10;stroke-linecap:round;stroke-miterlimit:10;}
</style>
<path class="st0" d="M310.94,382.45l-169.75-66.6l-20.89,53.24c0,0,79.11,31.04,115.06,69L310.94,382.45z"/>
<path class="st0" d="M44.83,238.85l-11.29,28.77c0,0-11.9-18.15-18.33-23.79C15.21,243.83,27.98,239.5,44.83,238.85z"/>
<path class="st0" d="M84.09,236.62l27.44,2.02c0,0,4.25,17.68,15.04,21.91L88,358.87l-8.67-1.71c0,0-5.92-27.22-22.75-50.42"/>
<polygon class="st0" points="355.79,350.58 355.83,350.49 158.04,272.89 155.22,280.08 348.47,355.9 "/>
<path class="st0" d="M223.55,1.89l17.84,103.48c0,0,164.26,36.43,216.27,84.85L550,129.97C550,129.97,428.38-2.81,223.55,1.89z"/>
<g>
	<g>
		<path class="st0" d="M363.95,140.19c-9.17,9.74-18.27,19.55-27.65,29.09c-4.66,4.74-9.4,9.39-14.3,13.88
			c-4.39,4.03-9,7.81-13.39,11.84c-4.68,4.3-9.05,9.06-11.88,14.8c-0.35,0.72-0.21,1.63,0.54,2.05c7.26,4.1,14.6,11.99,14.42,20.84
			c-0.07,3.67-1.57,6.93-3.16,10.16c-1.28,2.6-2.67,5.22-4.48,7.5c-3.03,3.81-7.08,5.64-11.77,6.58c-3.21,0.64-6.47,0.96-9.73,1.28
			c-2.65,0.25-5.75,0.06-8.12,1.5c-3.8,2.31-2.43,7.38-1.67,10.97c1.08,5.1,3.04,9.98,5.23,14.7c2.1,4.52,4.31,9.03,7.03,13.21
			c2.6,4,5.58,7.76,8.84,11.24c6.82,7.3,14.85,13.4,23.37,18.59c8.91,5.42,18.43,10.18,28.19,13.89c9.69,3.69,20.21,5.83,30.53,3.78
			c2.46-0.49,4.83-1.27,7.14-2.24c0.75-0.32,0.9-1.41,0.54-2.05c-0.44-0.78-1.31-0.85-2.05-0.54c-9.65,4.08-20.57,2.97-30.33-0.09
			c-9.88-3.09-19.4-7.84-28.39-12.93c-8.76-4.96-17.07-10.76-24.25-17.84c-3.37-3.32-6.49-6.9-9.23-10.75
			c-2.81-3.94-5.08-8.15-7.21-12.49c-2.29-4.66-4.42-9.42-5.81-14.43c-0.68-2.48-1.19-5.01-1.39-7.57
			c-0.11-1.51,0.05-2.52,1.54-3.16c0.37-0.16,0.77-0.23,1.16-0.34c0.07-0.02,0.53-0.09,0.15-0.03c-0.37,0.05,0.79-0.06,0.99-0.08
			c1.96-0.18,3.92-0.36,5.88-0.56c3.16-0.33,6.34-0.69,9.43-1.39c4.72-1.07,8.91-3.25,11.99-7.05c1.83-2.26,3.3-4.78,4.61-7.38
			c1.69-3.33,3.34-6.72,3.82-10.47c1.37-10.62-6.68-19.83-15.14-25.09c-0.2-0.13-0.4-0.25-0.61-0.37c0.18,0.68,0.36,1.37,0.54,2.05
			c5.13-10.42,15.19-17.3,23.57-24.92c9.6-8.73,18.62-18.08,27.53-27.5c5.22-5.52,10.43-11.06,15.64-16.59
			C367.39,140.9,365.28,138.78,363.95,140.19L363.95,140.19z"/>
	</g>
</g>
<g>
	<g>
		<path class="st0" d="M455.63,187.88c-0.2,0.24-0.4,0.47-0.61,0.71c-0.15,0.14-0.25,0.3-0.31,0.48c-0.09,0.18-0.14,0.37-0.13,0.58
			c-0.01,0.21,0.04,0.4,0.13,0.58c0.06,0.19,0.16,0.35,0.31,0.48c0.1,0.08,0.2,0.16,0.3,0.23c0.23,0.14,0.49,0.2,0.76,0.2
			c0.13-0.02,0.27-0.04,0.4-0.05c0.25-0.07,0.47-0.2,0.66-0.39c0.29-0.3,0.57-0.6,0.86-0.9c0.15-0.14,0.25-0.3,0.31-0.48
			c0.09-0.18,0.14-0.37,0.13-0.58c0.01-0.21-0.04-0.4-0.13-0.58c-0.06-0.19-0.16-0.35-0.31-0.48c-0.1-0.08-0.2-0.16-0.3-0.23
			c-0.23-0.14-0.49-0.2-0.76-0.2c-0.13,0.02-0.27,0.04-0.4,0.05c-0.25,0.07-0.47,0.2-0.66,0.39c-0.29,0.3-0.57,0.6-0.86,0.9
			c0.71,0.71,1.41,1.41,2.12,2.12c0.2-0.24,0.4-0.47,0.61-0.71c0.15-0.14,0.25-0.3,0.31-0.48c0.09-0.18,0.14-0.37,0.13-0.58
			c0.01-0.21-0.04-0.4-0.13-0.58c-0.06-0.19-0.16-0.35-0.31-0.48c-0.1-0.08-0.2-0.16-0.3-0.23c-0.23-0.14-0.49-0.2-0.76-0.2
			c-0.13,0.02-0.27,0.04-0.4,0.05C456.04,187.56,455.82,187.69,455.63,187.88L455.63,187.88z"/>
	</g>
</g>
<g>
	<g>
		<path class="st0" d="M456.83,190.32c1.93,0,1.93-3,0-3C454.9,187.32,454.9,190.32,456.83,190.32L456.83,190.32z"/>
	</g>
</g>
<g>
	<g>
		<path class="st0" d="M456.19,189.6c1.93,0,1.93-3,0-3C454.26,186.6,454.25,189.6,456.19,189.6L456.19,189.6z"/>
	</g>
</g>
<g>
	<g>
		<path class="st0" d="M455.6,189.53c1.93,0,1.93-3,0-3C453.67,186.53,453.67,189.53,455.6,189.53L455.6,189.53z"/>
	</g>
</g>
<g>
	<g>
		<path class="st0" d="M455.5,189.79c1.93,0,1.93-3,0-3C453.57,186.79,453.56,189.79,455.5,189.79L455.5,189.79z"/>
	</g>
</g>
<g>
	<g>
		<path class="st0" d="M456.72,188.49c-0.06-0.09-0.11-0.17-0.15-0.27c0.05,0.12,0.1,0.24,0.15,0.36c-0.04-0.11-0.07-0.22-0.09-0.33
			c0.02,0.13,0.04,0.27,0.05,0.4c-0.03-0.2-0.02-0.4,0.01-0.6c-0.02,0.13-0.04,0.27-0.05,0.4c0.07-0.5,0.25-0.98,0.36-1.47
			c0.17-0.7,0.24-1.44,0.04-2.14c-0.22-0.75-1.07-1.3-1.85-1.05c-0.77,0.25-1.28,1.04-1.05,1.85c0.02,0.08,0.04,0.17,0.06,0.26
			c-0.02-0.13-0.04-0.27-0.05-0.4c0.03,0.21,0.02,0.42-0.01,0.63c0.02-0.13,0.04-0.27,0.05-0.4c-0.08,0.59-0.3,1.14-0.41,1.72
			c-0.17,0.87-0.17,1.8,0.34,2.56c0.22,0.33,0.51,0.58,0.9,0.69c0.36,0.1,0.84,0.05,1.16-0.15
			C456.83,190.13,457.19,189.19,456.72,188.49L456.72,188.49z"/>
	</g>
</g>
<path class="st0" d="M436.1,259.57c0,0,8.42,26.13-9.17,23.37c0,0,0.51-3.95-10.98-6.38c-11.49-2.43-28.19-4.83-15.55-18.55
	s-4.5-1.76-4.5-1.76s-11.58,11.02,0.49,19.9s25.88,8.08,25.88,8.08s-12.78,5-11.17,12.04c0,0,8.82-11.03,16.09-11.22
	s11.68-6.81,11.68-6.81L436.1,259.57z"/>
<path class="st0" d="M407.6,301.75c0,0-29.48,2.5-35.46-6.07c0,0-1.04-2.34-5.59,5.14c0,0-4.39,3.54,11.49,4.51
	c15.87,0.97,19.81,13,19.81,13s2.08-7.34,5.09-7.84s4.72-3.41,4.65-5.28C407.52,303.34,407.6,301.75,407.6,301.75z"/>
<path class="st0" d="M396.89,296.05c0,0-13.47-8.86-39.64-3.85c-26.17,5.01,19.24-15.56,33.63-9.92
	C405.27,287.93,403.15,293.32,396.89,296.05z"/>
<path class="st0" d="M362.23,180.79c0,0,19.63-18.59,63.75-2.66c0,0,15.55,6.79,11.67,16.68c0,0,0.19,2.15-13.68-7.44
	S362.23,180.79,362.23,180.79z"/>
<path class="st0" d="M358.26,204.13c0,0,37.2-15.49,52.13-8.6c0,0,10.82,9.43,10.08,6.03c-0.74-3.4-2.38-7.16-10.12-11.23
	C402.62,186.26,360.18,196.58,358.26,204.13z"/>
<path class="st0" d="M358.26,204.13c0,0,33.83-9.55,50.56-1.95c16.73,7.6,14.54,2.59,14.54,2.59s4.5,1.76-0.51,3.95
	S370.27,202.62,358.26,204.13z"/>
<path class="st0" d="M392.92,217.73c0,0,2.48-10.44,0.49-13.29c-1.99-2.86,4.3-0.39,4.3-0.39s2.96,13.61,0.65,16.85
	C396.06,224.14,392.92,217.73,392.92,217.73z"/>
<path class="st0" d="M396.85,208.89c0,0,5.83-1.17,5.35,2.45c-0.47,3.62-7.05,12.45-7.05,12.45s10.79,4.23,7.93,6.22
	c-2.86,1.99-19.87,5.69-19.87,5.69s-5.76,1.93,8.69,1.87s19.78-8.34,18.85-13.89c-0.93-5.55,6.19-13.13,6.19-13.13
	s5.91-1.83,6.26-2.73c0.35-0.9-21.54-3.26-21.54-3.26l-4.65,1.29L396.85,208.89z"/>
<path class="st0" d="M394.89,211.24c0,0,2.9-4.28-7.17-3.97c-10.07,0.31-11.71,1.75-0.26,8.31c11.45,6.57,9.52,3.74,9.52,3.74
	s2.67,6.23-1.83,4.47c-4.5-1.76-18.58-11.8-18.58-11.8s-14.91-8.61-18.32-7.87c-3.4,0.74,0,0,0,0s6.58-8.83,39.45-0.08
	L394.89,211.24z"/>
<path class="st1" d="M244.14,99.71c0,0-2.45,15.64-18.76,27.39s-59.51,42.53-55.23,65.99c0,0-5.52,6.13-16.24,12.3
	c0,0-17.47-11-29.92,4.86s-2.46,35.35-2.46,35.35s10.54,20.73,51.49,3.6c0,0-3.81,20.29,17.77,28.76
	c21.58,8.46,46.6,18.28,46.6,18.28l36.46-34.05"/>
<path class="st2" d="M248.46,116.44c0,0-22.97,24.18-38.86,35.59s-29.43,24.76-29.71,36.06c-0.28,11.3,4.6,17.37,10.89,19.83
	c6.29,2.47,13.17,2.98,21.59-7.67s-7.89-18.13-7.89-18.13s-13.9-5.4-8.05,11.42"/>
<path class="st2" d="M294.28,129.23c0,0-34.36,37.35-57.57,54.18c0,0-25.98,27.15-7.13,44.92c0,0,15.57,10.26,26.61-2.01
	c11.04-12.27-0.88-24.2-0.88-24.2s-12.43-7.99-18.46,2.1s2.33,15.21,2.33,15.21s7.57,5.1,8.45-5.36"/>
<path class="st2" d="M285.31,236.72c0,0-8.25-0.12-0.26-12.55c7.99-12.43,17.59,2.75,17.59,2.75c2.99,18.81-12.31,21.97-12.31,21.97
	s-36.67,2.39-19.28-26.06c17.39-28.45,76.84-77.75,76.84-77.75"/>
<path class="st2" d="M263.9,119.39c0,0-21.72,23.64-55.61,51.84"/>
<path class="st2" d="M279.54,124.49c0,0-38.87,37.77-58.39,53.4"/>
<path class="st2" d="M311.52,132.88c0,0-38.28,42.04-57.02,55.44"/>
<path class="st2" d="M329.11,137.71c0,0-23.01,26.7-60.85,61.42"/>
<path class="st2" d="M189.8,221.03c0,0-29.94,28.71-46.47,23.26c-16.54-5.45-17.98-7.05-14.33-24.29
	c3.65-17.24,28.15-0.37,28.15-0.37s8.28,5.33-11.78,8.87"/>
<path class="st2" d="M240.34,242.93c0,0-20.98,27.04-33.69,30.35s-30.95-16.29-21.52-27.12s17.88-8.55,21.67-4.99
	c3.79,3.56,7.3,18.42-3.46,19.39c-10.75,0.97-6.87-8.92-6.87-8.92"/>
<line class="st2" x1="169.72" y1="205.31" x2="163.66" y2="209.36"/>
<line class="st2" x1="177.44" y1="216.18" x2="170.25" y2="220.62"/>
<line class="st2" x1="210.4" y1="218.74" x2="201.89" y2="226.97"/>
<line class="st2" x1="217.18" y1="229.7" x2="214.01" y2="232.76"/>
<line class="st2" x1="226.14" y1="239.44" x2="220.98" y2="244.67"/>
<path class="st2" d="M253.84,244.74c0,0-6.41,14.47-31.92,34.55"/>
<path class="st2" d="M262.85,256.95c0,0-9.24,12.97-27.79,28.52"/>
<g>
	<g>
		<path class="st0" d="M115.35,227.32c-9.91,0.03-19.82,0.3-29.72,0.66c-19.09,0.7-38.24,1.75-57.2,4.19
			c-8.9,1.14-17.91,2.47-26.5,5.15c-1.15,0.36-1.37,1.63-0.66,2.51c7.85,9.64,15.26,19.66,22.47,29.78
			c13.8,19.36,27.06,39.45,37.26,60.97c4.74,9.99,9.25,20.77,10.35,31.88c0.06,0.64,0.42,1.29,1.1,1.45
			c4.96,1.17,9.86,2.63,14.72,4.12c12.53,3.84,24.87,8.3,36.99,13.29c16.7,6.88,32.98,14.82,48.56,23.95
			c17.57,10.3,34.29,22.17,49.23,36.03c15.46,14.34,28.98,30.86,38.86,49.54c1.23,2.33,2.4,4.68,3.51,7.06
			c0.32,0.69,1.43,0.98,2.05,0.54c5.03-3.56,10.05-7.12,15.08-10.68c12-8.5,24-17,36-25.5c14.51-10.27,29.01-20.55,43.52-30.82
			c12.54-8.88,25.09-17.77,37.63-26.65c6.08-4.3,12.49-8.35,18.33-12.98c0.08-0.07,0.18-0.13,0.27-0.19
			c0.61-0.43,1.04-1.35,0.54-2.05c-9.95-13.86-19.89-27.72-29.84-41.58c-1.43-1.99-2.86-3.98-4.29-5.97c0,0.5,0,1.01,0,1.51
			c1.61-3.23,3.22-6.45,4.83-9.68c1.48-2.97,2.74-6.6,5.15-8.96c2.03-1.99,4.3-3.25,5.46-5.98c1.11-2.61,1.27-5.43,3.97-6.94
			c2-1.12,4.25-1.78,5.34-3.98c0.58-1.17,0.61-2.47,0.58-3.75c-0.05-1.99,0.18-3.54,1.3-5.24c3.39-5.15,8.9-9.03,14.74-10.88
			c4.95-1.57,10.64-1.33,13.07-6.79c2.13-4.78,0.88-10.34-0.01-15.25c-1.34-7.43-2.24-14.94-2.71-22.47
			c-0.22-3.57-0.37-7.15-0.38-10.73c-0.01-3.19,0.11-6.49,1.29-9.5c1.41-3.58,4.5-5.54,7.27-7.98c2.42-2.12,4.54-4.57,6.37-7.22
			c3.82-5.54,6.09-11.95,6.82-18.62c0.21-1.92-2.79-1.9-3,0c-0.68,6.14-2.9,12.02-6.41,17.11c-1.68,2.44-3.68,4.65-5.9,6.61
			c-2.27,1.99-4.8,3.68-6.51,6.22c-3.4,5.07-3.02,11.77-2.85,17.58c0.21,7.09,0.8,14.17,1.76,21.2c0.82,6.01,2.92,12.44,2.33,18.54
			c-0.25,2.59-1.24,5.13-3.71,6.33c-2.81,1.37-6.26,1.35-9.22,2.4c-5.24,1.87-10.02,5.1-13.6,9.37c-1.64,1.96-3.29,4.13-3.62,6.74
			c-0.19,1.5,0.34,3.25-0.16,4.69c-0.52,1.5-2.25,2.02-3.53,2.65c-2.56,1.26-4,2.97-4.94,5.66c-0.56,1.6-0.87,3.33-1.95,4.68
			c-1.01,1.27-2.49,2.09-3.66,3.18c-2.5,2.33-3.8,5.65-5.29,8.64c-1.8,3.61-3.6,7.22-5.41,10.84c-0.23,0.45-0.32,1.07,0,1.51
			c9.95,13.86,19.89,27.72,29.84,41.58c1.43,1.99,2.86,3.98,4.29,5.97c0.18-0.68,0.36-1.37,0.54-2.05
			c-5.03,3.56-10.05,7.12-15.08,10.68c-12,8.5-24,17-36,25.5c-14.51,10.27-29.01,20.55-43.52,30.82
			c-12.54,8.88-25.09,17.77-37.63,26.65c-4.15,2.94-8.3,5.88-12.46,8.82c-1.27,0.9-2.55,1.8-3.82,2.71
			c-0.6,0.43-1.58,0.88-2.05,1.45c-0.06,0.08-0.19,0.13-0.27,0.19c0.68,0.18,1.37,0.36,2.05,0.54
			c-9.02-19.27-21.88-36.52-36.91-51.51c-14.65-14.62-31.3-27.17-48.88-38.05c-15.85-9.81-32.52-18.29-49.64-25.66
			c-12.93-5.56-26.12-10.53-39.54-14.8c-4.16-1.32-8.34-2.58-12.55-3.75c-1.69-0.47-4.09-1.61-5.87-1.55
			c-0.08,0-0.18-0.04-0.26-0.06c0.37,0.48,0.73,0.96,1.1,1.45c-0.98-9.87-4.49-19.35-8.46-28.37c-4.9-11.13-10.84-21.79-17.14-32.18
			c-11.24-18.51-23.76-36.26-36.93-53.44c-2.77-3.61-5.55-7.22-8.42-10.75c-0.22,0.84-0.44,1.67-0.66,2.51
			c7.41-2.32,15.15-3.59,22.82-4.66c9.54-1.33,19.15-2.2,28.75-2.9c16.81-1.23,33.67-1.89,50.53-2.2c3.51-0.07,7.01-0.12,10.52-0.13
			C117.28,230.32,117.28,227.32,115.35,227.32L115.35,227.32z"/>
	</g>
</g>
<polygon class="st0" points="324.63,373.52 146.05,303.46 143.93,308.85 318.83,377.47 "/>
<rect x="150.1" y="286.87" transform="matrix(0.9309 0.3652 -0.3652 0.9309 118.4922 -37.2903)" class="st0" width="15.45" height="15.45"/>
<rect x="182.46" y="299.56" transform="matrix(0.9309 0.3652 -0.3652 0.9309 125.3653 -48.2336)" class="st0" width="15.45" height="15.45"/>
<rect x="214.83" y="312.26" transform="matrix(0.9309 0.3652 -0.3652 0.9309 132.2383 -59.1768)" class="st0" width="15.45" height="15.45"/>
<rect x="248.09" y="325.31" transform="matrix(0.9309 0.3652 -0.3652 0.9309 139.3023 -70.424)" class="st0" width="15.45" height="15.45"/>
<rect x="281.36" y="338.36" transform="matrix(0.9309 0.3652 -0.3652 0.9309 146.3663 -81.6712)" class="st0" width="15.45" height="15.45"/>
<rect x="314.62" y="351.41" transform="matrix(0.9309 0.3652 -0.3652 0.9309 153.4303 -92.9185)" class="st0" width="15.45" height="15.45"/>
<rect x="312.87" y="334.09" transform="matrix(0.5625 0.8268 -0.8268 0.5625 482.1324 -83.6491)" class="st0" width="14.49" height="159.35"/>
<rect x="329.97" y="353.47" transform="matrix(0.5625 0.8268 -0.8268 0.5625 504.1229 -86.4394)" class="st0" width="7.54" height="159.35"/>
<rect x="246.97" y="300.61" transform="matrix(0.9309 0.3652 -0.3652 0.9309 129.5185 -76.7809)" class="st0" width="41.53" height="6.76"/>
</svg>
