<?xml version="1.0" encoding="utf-8"?>
<!-- Generator: Adobe Illustrator 26.3.1, SVG Export Plug-In . SVG Version: 6.00 Build 0)  -->
<svg version="1.1" id="Layer_1" xmlns="http://www.w3.org/2000/svg" xmlns:xlink="http://www.w3.org/1999/xlink" x="0px" y="0px"
	 viewBox="0 0 500 500" style="enable-background:new 0 0 500 500;" xml:space="preserve">
<style type="text/css">
	.st0{fill:rgba(0,0,0,0);}
	.st1{fill:#FFFFFF;}
</style>
<g>
	<path class="st0" d="M250,495c-65.4,0-127-25.5-173.2-71.8S5,315.4,5,250S30.5,123,76.8,76.8S184.6,5,250,5s127,25.5,173.2,71.8
		S495,184.6,495,250s-25.5,127-71.8,173.2S315.4,495,250,495z"/>
	<path class="st1" d="M250,25c30.4,0,59.8,5.9,87.6,17.7c26.8,11.3,50.9,27.6,71.5,48.2c20.7,20.7,36.9,44.7,48.2,71.5
		c11.7,27.7,17.7,57.2,17.7,87.6s-5.9,59.8-17.7,87.6c-11.3,26.8-27.6,50.9-48.2,71.5c-20.7,20.7-44.7,36.9-71.5,48.2
		C309.8,469.1,280.4,475,250,475s-59.8-5.9-87.6-17.7c-26.8-11.3-50.9-27.6-71.5-48.2c-20.7-20.7-36.9-44.7-48.2-71.5
		C30.9,309.8,25,280.4,25,250s5.9-59.8,17.7-87.6c11.3-26.8,27.6-50.9,48.2-71.5c20.7-20.7,44.7-36.9,71.5-48.2
		C190.2,30.9,219.6,25,250,25 M250,0C111.9,0,0,111.9,0,250s111.9,250,250,250s250-111.9,250-250S388.1,0,250,0L250,0z"/>
</g>
<path class="st1" d="M250.6,85.5c-93.5,0-169,75.5-169,169c0,74.3,48.4,137.4,116,159.9c9,1.1,11.3-3.4,11.3-7.9v-29.3
	c-47.3,10.1-57.4-22.5-57.4-22.5c-7.9-19.1-19.1-24.8-19.1-24.8c-15.8-10.1,1.1-10.1,1.1-10.1c16.9,1.1,25.9,16.9,25.9,16.9
	c14.6,25.9,39.4,18,49.6,13.5c1.1-11.3,5.6-18,11.3-22.5c-37.2-4.5-76.6-19.1-76.6-83.3c0-18,6.8-33.8,16.9-45.1
	c-2.3-4.5-7.9-21.4,1.1-45.1c0,0,14.6-4.5,46.2,16.9c13.5-3.4,28.2-5.6,42.8-5.6s29.3,2.3,42.8,5.6c32.7-21.4,46.2-16.9,46.2-16.9
	c9,23.7,3.4,40.5,1.1,45.1c11.3,11.3,16.9,27,16.9,45.1c0,65.3-39.4,78.8-76.6,83.3c5.6,5.6,11.3,15.8,11.3,31.5v46.2
	c0,4.5,3.4,10.1,11.3,7.9c67.6-22.5,114.9-85.6,114.9-159.9C419.5,160.9,344,85.5,250.6,85.5z"/>
</svg>
